<svg width="56" height="56" viewBox="0 0 56 56" fill="none" xmlns="http://www.w3.org/2000/svg">
<rect width="56" height="56" rx="8" fill="#1E2128"/>
<path d="M19.6667 36.3333V36.35M19.6667 19.6666V19.6833M36.3334 19.6666V19.6833M36.3334 31.3333H31.3334V36.3333M41.3334 31.3333V31.35M31.3334 41.3333H36.3334M36.3334 36.3333H41.3334V41.3333M14.6667 16.3333C14.6667 15.8913 14.8423 15.4673 15.1548 15.1548C15.4674 14.8422 15.8913 14.6666 16.3334 14.6666H23C23.442 14.6666 23.866 14.8422 24.1785 15.1548C24.4911 15.4673 24.6667 15.8913 24.6667 16.3333V23C24.6667 23.442 24.4911 23.8659 24.1785 24.1785C23.866 24.491 23.442 24.6666 23 24.6666H16.3334C15.8913 24.6666 15.4674 24.491 15.1548 24.1785C14.8423 23.8659 14.6667 23.442 14.6667 23V16.3333ZM31.3334 16.3333C31.3334 15.8913 31.5089 15.4673 31.8215 15.1548C32.1341 14.8422 32.558 14.6666 33 14.6666H39.6667C40.1087 14.6666 40.5326 14.8422 40.8452 15.1548C41.1578 15.4673 41.3334 15.8913 41.3334 16.3333V23C41.3334 23.442 41.1578 23.8659 40.8452 24.1785C40.5326 24.491 40.1087 24.6666 39.6667 24.6666H33C32.558 24.6666 32.1341 24.491 31.8215 24.1785C31.5089 23.8659 31.3334 23.442 31.3334 23V16.3333ZM14.6667 33C14.6667 32.5579 14.8423 32.134 15.1548 31.8214C15.4674 31.5089 15.8913 31.3333 16.3334 31.3333H23C23.442 31.3333 23.866 31.5089 24.1785 31.8214C24.4911 32.134 24.6667 32.5579 24.6667 33V39.6666C24.6667 40.1087 24.4911 40.5326 24.1785 40.8451C23.866 41.1577 23.442 41.3333 23 41.3333H16.3334C15.8913 41.3333 15.4674 41.1577 15.1548 40.8451C14.8423 40.5326 14.6667 40.1087 14.6667 39.6666V33Z" stroke="#F4F4F4" stroke-width="2" stroke-linecap="round" stroke-linejoin="round"/>
</svg>
