<svg width="20" height="20" viewBox="0 0 20 20" fill="none" xmlns="http://www.w3.org/2000/svg">
<path d="M7.49833 17.0708C6.03642 16.5536 4.77079 15.5959 3.87566 14.3296C2.98053 13.0633 2.49993 11.5507 2.5 10C2.5 9.01509 2.69399 8.03982 3.0709 7.12987C3.44781 6.21993 4.00026 5.39314 4.6967 4.6967C5.39314 4.00026 6.21993 3.44781 7.12987 3.0709C8.03982 2.69399 9.01509 2.5 10 2.5C10.9849 2.5 11.9602 2.69399 12.8701 3.0709C13.7801 3.44781 14.6069 4.00026 15.3033 4.6967C15.9997 5.39314 16.5522 6.21993 16.9291 7.12987C17.306 8.03982 17.5 9.01509 17.5 10M10 5.83333V10M10 12.5H11.6667C11.8877 12.5 12.0996 12.5878 12.2559 12.7441C12.4122 12.9004 12.5 13.1123 12.5 13.3333V14.1667C12.5 14.3877 12.4122 14.5996 12.2559 14.7559C12.0996 14.9122 11.8877 15 11.6667 15H10.8333C10.6123 15 10.4004 15.0878 10.2441 15.2441C10.0878 15.4004 10 15.6123 10 15.8333V16.6667C10 16.8877 10.0878 17.0996 10.2441 17.2559C10.4004 17.4122 10.6123 17.5 10.8333 17.5H12.5M15 12.5V14.1667C15 14.3877 15.0878 14.5996 15.2441 14.7559C15.4004 14.9122 15.6123 15 15.8333 15H16.6667M17.5 12.5V17.5" stroke="#F4F4F4" stroke-linecap="round" stroke-linejoin="round"/>
</svg>
