<svg width="56" height="56" viewBox="0 0 56 56" fill="none" xmlns="http://www.w3.org/2000/svg">
<rect width="56" height="56" rx="8" fill="#1E2128"/>
<rect width="40" height="40" transform="translate(8 8)" fill="#1E2128"/>
<path d="M19.6667 19.6667H18C17.116 19.6667 16.2681 20.0179 15.643 20.643C15.0179 21.2681 14.6667 22.1159 14.6667 23V38C14.6667 38.8841 15.0179 39.7319 15.643 40.357C16.2681 40.9821 17.116 41.3333 18 41.3333H33C33.8841 41.3333 34.7319 40.9821 35.357 40.357C35.9822 39.7319 36.3334 38.8841 36.3334 38V36.3333M34.6667 16.3333L39.6667 21.3333M41.975 18.9752C42.6314 18.3188 43.0002 17.4285 43.0002 16.5002C43.0002 15.5719 42.6314 14.6816 41.975 14.0252C41.3186 13.3688 40.4283 13 39.5 13C38.5717 13 37.6814 13.3688 37.025 14.0252L23 28.0002V33.0002H28L41.975 18.9752Z" stroke="#F4F4F4" stroke-width="2" stroke-linecap="round" stroke-linejoin="round"/>
</svg>
