<svg width="152" height="152" viewBox="0 0 152 152" fill="none" xmlns="http://www.w3.org/2000/svg">
<g clip-path="url(#clip0_2_120)">
<path d="M126.667 0H25.3333C11.3421 0 0 11.3421 0 25.3333V126.667C0 140.658 11.3421 152 25.3333 152H126.667C140.658 152 152 140.658 152 126.667V25.3333C152 11.3421 140.658 0 126.667 0Z" fill="#212121"/>
<path d="M33.7778 93.3112V44.4389C33.7778 44.3807 33.825 44.3334 33.8833 44.3334H55.4053C55.4336 44.3334 55.4606 44.3448 55.4804 44.3646L118.044 107.487C118.11 107.554 118.063 107.667 117.969 107.667H86.8802C86.8519 107.667 86.8245 107.655 86.8047 107.635L55.8114 75.9882C55.6789 75.8531 55.4492 75.9468 55.4492 76.136V107.667H48.1333C40.205 107.667 33.7778 101.24 33.7778 93.3112Z" fill="#323232"/>
<path d="M96.5508 80.1505V44.4389C96.5508 44.3807 96.5981 44.3334 96.6564 44.3334H111.044C115.009 44.3334 118.222 47.5469 118.222 51.5112V99.7965C118.222 99.8881 118.113 99.9362 118.045 99.8742L96.585 80.2282C96.5631 80.2083 96.5508 80.18 96.5508 80.1505Z" fill="#323232"/>
</g>
<rect x="1" y="1" width="150" height="150" rx="59" stroke="#302F2F" stroke-width="2"/>
<defs>
<clipPath id="clip0_2_120">
<rect width="152" height="152" rx="60" fill="white"/>
</clipPath>
</defs>
</svg>
