<svg width="80" height="80" viewBox="0 0 80 80" fill="none" xmlns="http://www.w3.org/2000/svg">
<circle cx="40" cy="40" r="40" fill="white"/>
<path d="M41.8915 21.6C43.9614 21.6055 45.012 21.6166 45.9191 21.6423L46.276 21.6552C46.6882 21.6699 47.0948 21.6883 47.586 21.7104C49.5437 21.8024 50.8795 22.1115 52.0515 22.566C53.2658 23.0333 54.2888 23.6663 55.3118 24.6874C56.2474 25.6072 56.9713 26.7198 57.4332 27.9478C57.8877 29.1199 58.1968 30.4557 58.2888 32.4153C58.3108 32.9047 58.3292 33.3113 58.344 33.7253L58.355 34.0823C58.3826 34.9875 58.3936 36.0381 58.3973 38.1081L58.3992 39.4807V41.891C58.4037 43.2331 58.3896 44.5752 58.3568 45.9169L58.3458 46.2738C58.3311 46.6878 58.3127 47.0944 58.2906 47.5839C58.1986 49.5434 57.8858 50.8774 57.4332 52.0513C56.9726 53.28 56.2485 54.3928 55.3118 55.3117C54.3918 56.247 53.2793 56.9709 52.0515 57.4332C50.8795 57.8876 49.5437 58.1967 47.586 58.2887C47.1494 58.3093 46.7128 58.3277 46.276 58.3439L45.9191 58.355C45.012 58.3807 43.9614 58.3936 41.8915 58.3973L40.5189 58.3991H38.1105C36.7679 58.4038 35.4252 58.3897 34.083 58.3568L33.726 58.3458C33.2892 58.3292 32.8526 58.3102 32.416 58.2887C30.4583 58.1967 29.1226 57.8876 27.9487 57.4332C26.7209 56.972 25.6088 56.248 24.6902 55.3117C23.7538 54.3922 23.0292 53.2796 22.567 52.0513C22.1125 50.8792 21.8034 49.5434 21.7114 47.5839C21.6909 47.1473 21.6725 46.7106 21.6562 46.2738L21.647 45.9169C21.6131 44.5752 21.5978 43.2331 21.601 41.891V38.1081C21.5959 36.766 21.6094 35.424 21.6415 34.0823L21.6544 33.7253C21.6691 33.3113 21.6875 32.9047 21.7096 32.4153C21.8016 30.4557 22.1107 29.1217 22.5651 27.9478C23.0272 26.7186 23.7532 25.6056 24.6921 24.6874C25.6104 23.7518 26.7218 23.0278 27.9487 22.566C29.1226 22.1115 30.4565 21.8024 32.416 21.7104C32.9054 21.6883 33.3139 21.6699 33.726 21.6552L34.083 21.6442C35.4246 21.6115 36.7666 21.5974 38.1087 21.6018L41.8915 21.6ZM40.0001 30.7998C37.5602 30.7998 35.2203 31.769 33.495 33.4943C31.7698 35.2196 30.8006 37.5596 30.8006 39.9996C30.8006 42.4395 31.7698 44.7795 33.495 46.5048C35.2203 48.2301 37.5602 49.1994 40.0001 49.1994C42.44 49.1994 44.7799 48.2301 46.5051 46.5048C48.2304 44.7795 49.1996 42.4395 49.1996 39.9996C49.1996 37.5596 48.2304 35.2196 46.5051 33.4943C44.7799 31.769 42.44 30.7998 40.0001 30.7998ZM40.0001 34.4797C40.725 34.4796 41.4427 34.6222 42.1125 34.8995C42.7822 35.1768 43.3908 35.5833 43.9034 36.0958C44.416 36.6083 44.8227 37.2167 45.1002 37.8864C45.3777 38.556 45.5206 39.2738 45.5207 39.9986C45.5209 40.7235 45.3782 41.4413 45.1009 42.1111C44.8236 42.7808 44.4172 43.3894 43.9047 43.9021C43.3922 44.4147 42.7838 44.8214 42.1142 45.0989C41.4445 45.3764 40.7268 45.5193 40.0019 45.5194C38.538 45.5194 37.1341 44.9379 36.0989 43.9027C35.0638 42.8675 34.4822 41.4635 34.4822 39.9996C34.4822 38.5356 35.0638 37.1316 36.0989 36.0964C37.1341 35.0613 38.538 34.4797 40.0019 34.4797M49.6614 28.0398C49.0515 28.0398 48.4665 28.2822 48.0352 28.7135C47.6039 29.1448 47.3616 29.7298 47.3616 30.3398C47.3616 30.9498 47.6039 31.5348 48.0352 31.9661C48.4665 32.3974 49.0515 32.6397 49.6614 32.6397C50.2714 32.6397 50.8564 32.3974 51.2877 31.9661C51.719 31.5348 51.9613 30.9498 51.9613 30.3398C51.9613 29.7298 51.719 29.1448 51.2877 28.7135C50.8564 28.2822 50.2714 28.0398 49.6614 28.0398Z" fill="#0F0F0F"/>
</svg>
