<svg width="20" height="20" viewBox="0 0 20 20" fill="none" xmlns="http://www.w3.org/2000/svg">
<path d="M3.33329 10C3.33329 11.7681 4.03567 13.4638 5.28591 14.7141C6.53616 15.9643 8.23185 16.6667 9.99996 16.6667M3.33329 10C3.33329 8.23191 4.03567 6.53622 5.28591 5.28597C6.53616 4.03573 8.23185 3.33335 9.99996 3.33335M3.33329 10H1.66663M9.99996 16.6667C11.7681 16.6667 13.4638 15.9643 14.714 14.7141C15.9642 13.4638 16.6666 11.7681 16.6666 10M9.99996 16.6667V18.3334M16.6666 10C16.6666 8.23191 15.9642 6.53622 14.714 5.28597C13.4638 4.03573 11.7681 3.33335 9.99996 3.33335M16.6666 10H18.3333M9.99996 3.33335V1.66669M7.49996 10C7.49996 10.6631 7.76335 11.2989 8.23219 11.7678C8.70103 12.2366 9.33692 12.5 9.99996 12.5C10.663 12.5 11.2989 12.2366 11.7677 11.7678C12.2366 11.2989 12.5 10.6631 12.5 10C12.5 9.33698 12.2366 8.70109 11.7677 8.23225C11.2989 7.76341 10.663 7.50002 9.99996 7.50002C9.33692 7.50002 8.70103 7.76341 8.23219 8.23225C7.76335 8.70109 7.49996 9.33698 7.49996 10Z" stroke="#F4F4F4" stroke-linecap="round" stroke-linejoin="round"/>
</svg>
