<svg width="96" height="96" viewBox="0 0 96 96" fill="none" xmlns="http://www.w3.org/2000/svg">
<path d="M60 32H60.04M12 63.9993L32 43.9993C35.712 40.4273 40.288 40.4273 44 43.9993L64 63.9993M56 55.9993L60 51.9993C63.712 48.4273 68.288 48.4273 72 51.9993L84 63.9993M12 24C12 20.8174 13.2643 17.7652 15.5147 15.5147C17.7652 13.2643 20.8174 12 24 12H72C75.1826 12 78.2348 13.2643 80.4853 15.5147C82.7357 17.7652 84 20.8174 84 24V72C84 75.1826 82.7357 78.2348 80.4853 80.4853C78.2348 82.7357 75.1826 84 72 84H24C20.8174 84 17.7652 82.7357 15.5147 80.4853C13.2643 78.2348 12 75.1826 12 72V24Z" stroke="#888888" stroke-width="4" stroke-linecap="round" stroke-linejoin="round"/>
</svg>
