<svg width="32" height="32" viewBox="0 0 32 32" fill="none" xmlns="http://www.w3.org/2000/svg">
<path d="M20 10.6667H20.0133M16.6667 28H8C6.93913 28 5.92172 27.5786 5.17157 26.8284C4.42143 26.0783 4 25.0609 4 24V8C4 6.93913 4.42143 5.92172 5.17157 5.17157C5.92172 4.42143 6.93913 4 8 4H24C25.0609 4 26.0783 4.42143 26.8284 5.17157C27.5786 5.92172 28 6.93913 28 8V16.6667M4 21.3331L10.6667 14.6664C11.904 13.4758 13.4293 13.4758 14.6667 14.6664L20 19.9998M18.6667 18.6673L20 17.3339C20.8933 16.4753 21.9333 16.2353 22.9093 16.6139M21.3333 25.3333H29.3333M25.3333 21.3333V29.3333" stroke="#888888" stroke-width="2" stroke-linecap="round" stroke-linejoin="round"/>
</svg>
