<svg width="25" height="24" viewBox="0 0 25 24" fill="none" xmlns="http://www.w3.org/2000/svg">
<path d="M7.5 17V17.01M7.5 7V7.01M17.5 7V7.01M17.5 14H14.5V17M20.5 14V14.01M14.5 20H17.5M17.5 17H20.5V20M4.5 5C4.5 4.73478 4.60536 4.48043 4.79289 4.29289C4.98043 4.10536 5.23478 4 5.5 4H9.5C9.76522 4 10.0196 4.10536 10.2071 4.29289C10.3946 4.48043 10.5 4.73478 10.5 5V9C10.5 9.26522 10.3946 9.51957 10.2071 9.70711C10.0196 9.89464 9.76522 10 9.5 10H5.5C5.23478 10 4.98043 9.89464 4.79289 9.70711C4.60536 9.51957 4.5 9.26522 4.5 9V5ZM14.5 5C14.5 4.73478 14.6054 4.48043 14.7929 4.29289C14.9804 4.10536 15.2348 4 15.5 4H19.5C19.7652 4 20.0196 4.10536 20.2071 4.29289C20.3946 4.48043 20.5 4.73478 20.5 5V9C20.5 9.26522 20.3946 9.51957 20.2071 9.70711C20.0196 9.89464 19.7652 10 19.5 10H15.5C15.2348 10 14.9804 9.89464 14.7929 9.70711C14.6054 9.51957 14.5 9.26522 14.5 9V5ZM4.5 15C4.5 14.7348 4.60536 14.4804 4.79289 14.2929C4.98043 14.1054 5.23478 14 5.5 14H9.5C9.76522 14 10.0196 14.1054 10.2071 14.2929C10.3946 14.4804 10.5 14.7348 10.5 15V19C10.5 19.2652 10.3946 19.5196 10.2071 19.7071C10.0196 19.8946 9.76522 20 9.5 20H5.5C5.23478 20 4.98043 19.8946 4.79289 19.7071C4.60536 19.5196 4.5 19.2652 4.5 19V15Z" stroke="#F4F4F4" stroke-width="1.5" stroke-linecap="round" stroke-linejoin="round"/>
</svg>
