<svg width="20" height="20" viewBox="0 0 20 20" fill="none" xmlns="http://www.w3.org/2000/svg">
<path d="M3.33333 18.3333L6.66667 16.6666V14.1666H16.6667M9.16667 16.6666H16.6667M6.66667 11.6666L9.16667 9.99998L10 6.66665C12.5 7.49998 12.5 9.99998 12.5 11.6666M2.5 14.1666C2.5 14.3877 2.5878 14.5996 2.74408 14.7559C2.90036 14.9122 3.11232 15 3.33333 15C3.55435 15 3.76631 14.9122 3.92259 14.7559C4.07887 14.5996 4.16667 14.3877 4.16667 14.1666C4.16667 13.9456 4.07887 13.7337 3.92259 13.5774C3.76631 13.4211 3.55435 13.3333 3.33333 13.3333C3.11232 13.3333 2.90036 13.4211 2.74408 13.5774C2.5878 13.7337 2.5 13.9456 2.5 14.1666ZM6.66667 4.16665C6.66667 4.38766 6.75446 4.59962 6.91074 4.7559C7.06703 4.91218 7.27899 4.99998 7.5 4.99998C7.72101 4.99998 7.93298 4.91218 8.08926 4.7559C8.24554 4.59962 8.33333 4.38766 8.33333 4.16665C8.33333 3.94563 8.24554 3.73367 8.08926 3.57739C7.93298 3.42111 7.72101 3.33331 7.5 3.33331C7.27899 3.33331 7.06703 3.42111 6.91074 3.57739C6.75446 3.73367 6.66667 3.94563 6.66667 4.16665Z" stroke="#F4F4F4" stroke-linecap="round" stroke-linejoin="round"/>
</svg>
