<svg width="80" height="80" viewBox="0 0 80 80" fill="none" xmlns="http://www.w3.org/2000/svg">
<circle cx="40" cy="40" r="40" fill="white"/>
<path fill-rule="evenodd" clip-rule="evenodd" d="M54.1738 24.2353C54.6754 24.027 55.2245 23.9551 55.7638 24.0272C56.3032 24.0993 56.8131 24.3128 57.2404 24.6454C57.6678 24.978 57.9971 25.4176 58.1939 25.9184C58.3907 26.4193 58.4479 26.963 58.3596 27.493L53.7556 55.0551C53.309 57.7138 50.3534 59.2384 47.8829 57.9141C45.8164 56.8062 42.7471 55.0992 39.9863 53.3181C38.6059 52.4266 34.3775 49.5716 34.8972 47.54C35.3438 45.803 42.4487 39.2756 46.5086 35.3948C48.1021 33.8702 47.3754 32.9906 45.4936 34.3931C40.8206 37.8752 33.3178 43.1704 30.8372 44.661C28.6489 45.9753 27.508 46.1997 26.1439 45.9753C23.6552 45.5666 21.3471 44.9335 19.4633 44.1621C16.9177 43.1203 17.0415 39.6663 19.4612 38.6605L54.1738 24.2353Z" fill="#0F0F0F"/>
</svg>
